<?xml version="1.0" encoding="UTF-8" standalone="no"?>
<!DOCTYPE svg PUBLIC "-//W3C//DTD SVG 1.1//EN" "http://www.w3.org/Graphics/SVG/1.1/DTD/svg11.dtd">
<svg width="100%" height="100%" viewBox="0 0 2039 623" version="1.1" xmlns="http://www.w3.org/2000/svg" xmlns:xlink="http://www.w3.org/1999/xlink" xml:space="preserve" xmlns:serif="http://www.serif.com/" style="fill-rule:evenodd;clip-rule:evenodd;stroke-linejoin:round;stroke-miterlimit:2;">
    <g transform="matrix(1,0,0,1,-5903.157059,-3988.953257)">
        <g id="Artboard7" transform="matrix(1.072796,0,0,0.327543,-426.820467,3347.178125)">
            <rect x="5900.451" y="1959.364" width="1900.028" height="1900.028" style="fill:none;"/>
            <g transform="matrix(1,0,0,1,24.552035,32.442696)">
                <g transform="matrix(0.777089,0,0,2.545187,4631.962606,1423.59504)">
                    <path d="M2428.78,439.464L2476.25,439.464L2476.25,560.324L2550.514,560.324L2550.514,439.464L2597.984,439.464L2590.995,373.063L2435.769,373.063L2428.78,439.464Z" style="fill:rgb(238,231,51);"/>
                    <path d="M2784.08,396.07L2710.108,396.07L2710.108,485.478C2706.904,488.39 2703.118,490.72 2697.876,490.72C2690.887,490.72 2688.266,487.517 2688.266,480.236L2688.266,396.07L2614.293,396.07L2614.293,518.969C2614.293,545.18 2649.241,565.275 2693.508,564.11L2706.613,501.204L2713.603,501.204L2710.108,560.324L2784.08,560.324L2784.08,396.07Z" style="fill:rgb(238,231,51);"/>
                    <path d="M2895.33,558.286L2895.33,500.913L2877.856,500.913L2877.856,449.074L2894.748,449.074L2894.748,435.678L2862.13,435.678L2862.13,427.814C2879.313,426.358 2892.709,396.362 2884.264,376.849L2803.884,376.849L2803.884,435.678L2792.817,435.678L2792.817,449.074L2803.884,449.074L2803.884,529.454C2803.884,547.801 2821.358,563.819 2841.744,563.819C2857.762,563.819 2880.478,561.489 2895.33,558.286Z" style="fill:rgb(238,231,51);"/>
                    <path d="M2907.562,478.197C2907.562,529.454 2940.471,563.819 2992.019,563.819C3043.858,563.819 3076.475,532.949 3076.475,478.197C3076.475,426.941 3043.858,392.576 2992.019,392.576C2940.471,392.576 2907.562,423.446 2907.562,478.197ZM2978.622,478.197C2978.622,464.509 2982.408,457.52 2992.019,457.52C3001.92,457.52 3005.415,464.509 3005.415,478.197C3005.415,491.885 3001.92,498.875 2992.019,498.875C2982.408,498.875 2978.622,491.885 2978.622,478.197Z" style="fill:rgb(238,231,51);"/>
                    <path d="M3092.784,560.324L3166.757,560.324L3166.757,483.731L3231.118,474.994L3227.624,403.351C3217.139,396.653 3199.083,392.576 3183.357,392.576L3164.718,461.306L3157.728,461.306L3166.757,396.07L3092.784,396.07L3092.784,560.324Z" style="fill:rgb(238,231,51);"/>
                    <path d="M3243.35,478.78C3261.989,481.11 3298.392,485.478 3336.835,489.264L3336.835,496.254C3336.835,502.369 3333.049,505.864 3326.642,505.864C3316.74,505.864 3314.119,497.418 3312.663,493.341L3240.438,497.418C3245.68,544.889 3270.143,563.819 3324.603,563.819C3378.189,563.819 3407.895,545.763 3407.895,513.727C3407.895,503.243 3404.983,487.517 3400.032,479.653C3383.14,477.906 3347.61,474.12 3312.663,471.79L3312.371,463.927C3312.371,457.229 3317.614,454.025 3326.059,454.025C3333.631,454.025 3337.709,461.888 3338.582,470.043L3409.642,464.509C3404.109,418.495 3379.937,392.576 3322.856,392.576C3263.154,392.576 3239.855,417.621 3243.35,478.78Z" style="fill:rgb(238,231,51);"/>
                </g>
                <g transform="matrix(0.63895,0,0,2.092742,4964.801747,2244.258453)">
                    <path d="M2678.853,535.703C2683.33,511.401 2686.527,497.012 2686.527,464.077C2686.527,387.015 2635.046,335.535 2557.985,335.535C2480.603,335.535 2429.122,387.015 2429.122,464.077C2429.122,541.458 2480.603,592.939 2557.985,592.939C2586.763,592.939 2611.704,585.905 2631.849,572.795L2619.698,551.691C2603.07,562.882 2581.966,568.958 2557.985,568.958C2494.992,568.958 2453.104,527.069 2453.104,464.077C2453.104,401.405 2494.992,359.516 2557.985,359.516C2624.174,359.516 2662.545,401.405 2662.545,464.077C2662.545,479.106 2661.266,497.652 2658.388,511.721L2626.413,511.721L2626.413,387.975L2559.903,387.975L2572.693,431.782L2566.298,431.782C2561.182,418.032 2550.31,395.969 2543.915,385.097C2500.108,385.097 2471.97,412.276 2471.97,466.955C2471.97,515.238 2493.713,538.581 2521.852,538.581C2541.677,538.581 2555.426,525.79 2558.304,501.169L2564.699,501.169L2564.38,535.703L2678.853,535.703ZM2547.752,480.385C2539.119,480.385 2535.921,473.99 2535.921,461.839C2535.921,449.688 2539.119,443.293 2547.752,443.293C2555.426,443.293 2559.903,449.048 2559.903,456.723L2559.903,466.955C2559.903,475.908 2555.426,480.385 2547.752,480.385Z" style="fill:rgb(238,231,51);fill-rule:nonzero;"/>
                    <path d="M2710.829,430.183L2806.756,427.625L2806.756,436.258L2710.829,472.711L2710.829,560.324L2873.905,560.324L2873.905,484.861L2777.978,487.419L2777.978,478.466L2873.905,442.014L2873.905,354.72L2710.829,354.72L2710.829,430.183Z" style="fill:rgb(238,231,51);fill-rule:nonzero;"/>
                    <path d="M2927.624,560.324L3010.761,560.324L3016.517,469.833L3023.552,469.833L3029.307,560.324L3112.444,560.324L3152.094,379.981L3066.719,379.981L3060.004,491.256L3052.65,491.256L3044.016,379.981L2995.733,379.981L2987.419,491.256L2980.065,491.256L2973.03,379.981L2887.974,379.981L2927.624,560.324Z" style="fill:rgb(238,231,51);fill-rule:nonzero;"/>
                    <path d="M3265.288,516.837L3272.963,516.837L3265.288,560.324L3334.996,560.324L3334.996,434.02C3334.996,401.724 3299.822,376.144 3255.696,376.144C3223.72,376.144 3188.227,382.539 3163.286,393.411L3176.716,457.042C3191.105,452.246 3209.97,449.368 3228.516,449.048C3244.504,449.048 3260.172,450.967 3272.963,455.124L3272.643,464.397C3256.335,462.159 3235.231,458.961 3220.522,460.24C3181.512,463.118 3155.931,479.745 3156.251,510.122C3156.571,548.493 3185.349,565.76 3244.504,564.161C3251.859,548.493 3257.614,535.063 3265.288,516.837ZM3256.975,494.774C3256.975,503.088 3255.056,508.523 3247.382,508.523C3239.708,508.523 3237.15,501.489 3237.15,493.495C3237.15,485.181 3239.708,479.106 3247.382,479.106C3255.376,479.106 3256.975,486.14 3256.975,492.536L3256.975,494.774Z" style="fill:rgb(238,231,51);fill-rule:nonzero;"/>
                    <path d="M3353.541,560.324L3434.76,560.324L3434.76,476.228L3505.426,466.635L3501.589,387.975C3490.078,380.62 3470.253,376.144 3452.986,376.144L3432.522,451.607L3424.847,451.607L3434.76,379.981L3353.541,379.981L3353.541,560.324Z" style="fill:rgb(238,231,51);fill-rule:nonzero;"/>
                    <path d="M3629.492,558.086L3629.492,495.094L3610.307,495.094L3610.307,438.177L3628.853,438.177L3628.853,423.468L3593.04,423.468L3593.04,414.834C3611.906,413.236 3626.614,380.301 3617.341,358.877L3529.088,358.877L3529.088,423.468L3516.938,423.468L3516.938,438.177L3529.088,438.177L3529.088,526.43C3529.088,546.575 3548.274,564.161 3570.657,564.161C3588.244,564.161 3613.185,561.603 3629.492,558.086Z" style="fill:rgb(238,231,51);fill-rule:nonzero;"/>
                    <path d="M3646.759,560.324L3727.978,560.324L3720.303,480.385L3728.937,480.385L3746.204,560.324L3834.137,560.324L3812.394,477.507L3756.436,487.419L3754.518,479.745C3795.766,474.629 3828.701,439.775 3828.701,379.981L3743.326,379.981L3727.978,453.525L3720.303,453.525L3727.978,379.981L3727.978,335.535L3646.759,335.535L3646.759,560.324Z" style="fill:rgb(238,231,51);fill-rule:nonzero;"/>
                    <path d="M3834.777,470.152C3834.777,526.43 3870.909,564.161 3927.506,564.161C3984.423,564.161 4020.236,530.267 4020.236,470.152C4020.236,413.875 3984.423,376.144 3927.506,376.144C3870.909,376.144 3834.777,410.038 3834.777,470.152ZM3912.798,470.152C3912.798,455.124 3916.954,447.45 3927.506,447.45C3938.378,447.45 3942.215,455.124 3942.215,470.152C3942.215,485.181 3938.378,492.855 3927.506,492.855C3916.954,492.855 3912.798,485.181 3912.798,470.152Z" style="fill:rgb(238,231,51);fill-rule:nonzero;"/>
                    <path d="M4034.945,379.981L4034.945,604.77L4116.163,604.77L4110.088,506.925L4117.762,506.925C4121.279,526.11 4127.355,545.296 4135.349,564.161C4189.708,564.161 4223.282,530.267 4223.282,464.077C4223.282,405.242 4196.742,376.144 4162.208,376.144C4138.546,376.144 4121.919,392.132 4118.082,422.189L4110.408,422.189L4111.047,379.981L4034.945,379.981ZM4130.872,492.855C4121.919,492.855 4116.163,486.14 4116.163,476.228L4116.163,463.757C4116.163,452.886 4121.919,447.45 4130.872,447.45C4141.744,447.45 4145.581,455.124 4145.581,470.152C4145.581,485.181 4141.744,492.855 4130.872,492.855Z" style="fill:rgb(238,231,51);fill-rule:nonzero;"/>
                </g>
            </g>
            <g transform="matrix(0.416641,0,0,1.364619,5053.296088,1548.405894)">
                <path d="M2900.014,405.552C3200.511,405.552 3444.476,649.517 3444.476,950.014C3444.476,1250.511 3200.511,1494.476 2900.014,1494.476C2599.517,1494.476 2355.552,1250.511 2355.552,950.014C2355.552,649.517 2599.517,405.552 2900.014,405.552ZM2612.353,762.015C2609.871,757.384 2606.458,752.433 2595.88,746.58C2591.825,744.337 2581.904,745.084 2580.694,747.751C2579.257,750.919 2586.426,761.291 2590.482,765.004C2594.538,768.718 2605.8,774.359 2610.772,774.365C2615.745,774.37 2614.835,766.646 2612.353,762.015ZM2625.97,906.193C2620.744,905.66 2614.73,905.717 2603.96,911.21C2599.833,913.316 2594.901,921.956 2596.434,924.452C2598.256,927.416 2610.864,927.276 2616.211,925.993C2621.558,924.709 2632.535,918.531 2635.322,914.413C2638.108,910.295 2631.197,906.727 2625.97,906.193ZM2642.151,824.352C2638.33,820.745 2633.525,817.129 2621.638,814.927C2617.081,814.084 2607.907,817.933 2607.604,820.847C2607.244,824.307 2617.329,831.875 2622.352,834.113C2627.375,836.351 2639.844,838.136 2644.562,836.567C2649.28,834.997 2645.972,827.958 2642.151,824.352ZM2718.547,665.631C2718.547,665.631 2731.819,651.881 2730.306,638.761C2728.792,625.64 2726.197,613.238 2715.828,620.833C2705.459,628.428 2705.794,644.754 2709.437,655.087C2713.079,665.42 2714.922,667.746 2718.547,665.631ZM2643.386,799.034C2643.386,799.034 2649.479,780.921 2642.485,769.716C2635.491,758.512 2627.829,748.422 2621.718,759.729C2615.608,771.036 2622.912,785.642 2630.633,793.415C2638.355,801.188 2641.017,802.499 2643.386,799.034ZM2694.451,675.24C2694.451,675.24 2699.049,656.691 2691.166,646.094C2683.282,635.496 2674.823,626.064 2669.654,637.831C2664.485,649.599 2672.954,663.56 2681.283,670.679C2689.612,677.797 2692.372,678.887 2694.451,675.24ZM2815.719,646.393C2815.719,646.393 2822.047,628.361 2815.199,617.067C2808.351,605.772 2800.82,595.584 2794.564,606.811C2788.307,618.038 2795.421,632.736 2803.04,640.609C2810.66,648.482 2813.305,649.827 2815.719,646.393ZM2846.839,664.572C2846.839,664.572 2863.555,655.311 2865.95,642.322C2868.345,629.333 2869.494,616.715 2857.356,620.941C2845.218,625.167 2840.758,640.876 2841.215,651.822C2841.672,662.769 2842.753,665.533 2846.839,664.572ZM2775.013,653.039C2775.013,653.039 2785.634,637.152 2781.816,624.508C2777.998,611.864 2773.242,600.121 2764.386,609.435C2755.53,618.749 2758.757,634.757 2764.176,644.279C2769.594,653.802 2771.821,655.764 2775.013,653.039ZM2803.022,700.193C2803.022,700.193 2813.643,684.306 2809.825,671.662C2806.006,659.018 2801.251,647.274 2792.395,656.589C2783.539,665.903 2786.766,681.911 2792.184,691.433C2797.603,700.956 2799.829,702.918 2803.022,700.193ZM2674.31,1039.66C2674.31,1039.66 2655.677,1043.902 2649.761,1055.711C2643.845,1067.52 2639.229,1079.319 2652.063,1078.64C2664.898,1077.96 2673.554,1064.113 2676.163,1053.472C2678.771,1042.831 2678.502,1039.875 2674.31,1039.66ZM2713.053,910.898C2713.053,910.898 2694.003,912.415 2686.45,923.25C2678.897,934.086 2672.632,945.098 2685.43,946.271C2698.229,947.445 2708.788,934.988 2712.9,924.832C2717.012,914.677 2717.171,911.713 2713.053,910.898ZM2736.082,693.29C2736.082,693.29 2752.798,684.029 2755.193,671.04C2757.588,658.051 2758.737,645.433 2746.599,649.659C2734.461,653.885 2730.001,669.594 2730.458,680.54C2730.915,691.487 2731.996,694.251 2736.082,693.29ZM2666.142,916.468C2666.142,916.468 2647.07,915.252 2638.049,924.899C2629.027,934.546 2621.255,944.552 2633.756,947.54C2646.256,950.527 2658.484,939.703 2664.002,930.238C2669.52,920.773 2670.101,917.862 2666.142,916.468ZM2840.796,798.706C2840.796,798.706 2857.189,808.527 2869.629,804.088C2882.068,799.648 2893.562,794.317 2883.821,785.933C2874.079,777.549 2858.251,781.565 2849.008,787.448C2839.766,793.331 2837.916,795.652 2840.796,798.706ZM2609.377,1068.487C2614.544,1069.439 2620.543,1069.864 2631.719,1065.254C2636.003,1063.486 2641.613,1055.27 2640.284,1052.66C2638.706,1049.559 2626.128,1048.685 2620.695,1049.535C2615.262,1050.386 2603.824,1055.662 2600.716,1059.543C2597.608,1063.424 2604.21,1067.535 2609.377,1068.487ZM2873.978,645.893C2873.978,645.893 2877.868,664.603 2889.563,670.741C2901.259,676.878 2912.969,681.716 2912.531,668.871C2912.093,656.026 2898.413,647.11 2887.823,644.301C2877.233,641.493 2874.272,641.706 2873.978,645.893ZM2985.842,577.125C2985.842,577.125 2969.338,586.759 2967.235,599.798C2965.132,612.838 2964.265,625.478 2976.306,620.981C2988.346,616.485 2992.453,600.68 2991.751,589.746C2991.049,578.813 2989.906,576.073 2985.842,577.125ZM2876.883,585.133C2876.883,585.133 2868.854,602.475 2874.586,614.374C2880.319,626.273 2886.838,637.137 2894.143,626.563C2901.448,615.988 2895.777,600.674 2888.948,592.107C2882.119,583.539 2879.615,581.946 2876.883,585.133ZM2591.98,895.325C2586.74,894.945 2580.73,895.18 2570.127,900.988C2566.063,903.214 2561.387,911.995 2562.994,914.445C2564.902,917.354 2577.5,916.844 2582.807,915.403C2588.114,913.963 2598.905,907.464 2601.569,903.266C2604.233,899.068 2597.22,895.705 2591.98,895.325ZM3039.47,578.529C3039.47,578.529 3020.409,577.148 3011.305,586.717C3002.2,596.286 2994.342,606.224 3006.816,609.319C3019.29,612.414 3031.611,601.697 3037.211,592.28C3042.811,582.863 3043.417,579.958 3039.47,578.529ZM2908.792,607.469C2908.792,607.469 2900.763,624.811 2906.495,636.71C2912.227,648.609 2918.746,659.473 2926.051,648.899C2933.356,638.324 2927.686,623.01 2920.857,614.443C2914.028,605.875 2911.524,604.282 2908.792,607.469ZM3053.09,655.332C3053.09,655.332 3045.061,672.674 3050.793,684.573C3056.525,696.472 3063.044,707.336 3070.349,696.762C3077.654,686.187 3071.984,670.873 3065.155,662.306C3058.326,653.738 3055.822,652.145 3053.09,655.332ZM2702.005,1078.224C2698.15,1081.794 2694.219,1086.345 2691.223,1098.058C2690.075,1102.547 2693.299,1111.959 2696.186,1112.457C2699.614,1113.049 2707.842,1103.496 2710.413,1098.634C2712.984,1093.773 2715.603,1081.452 2714.354,1076.639C2713.106,1071.827 2705.86,1074.655 2702.005,1078.224ZM2780.211,1048.72C2780.458,1053.968 2781.407,1059.907 2788.436,1069.743C2791.131,1073.513 2800.407,1077.109 2802.647,1075.223C2805.308,1072.982 2803.301,1060.534 2801.239,1055.436C2799.177,1050.339 2791.439,1040.399 2786.954,1038.253C2782.468,1036.108 2779.964,1043.472 2780.211,1048.72ZM2853.804,720.278C2853.804,720.278 2872.267,725.209 2883.005,717.517C2893.742,709.826 2903.325,701.538 2891.653,696.158C2879.98,690.778 2865.868,698.995 2858.602,707.195C2851.335,715.394 2850.195,718.135 2853.804,720.278ZM2703.558,1026.965C2703.558,1026.965 2687.75,1037.704 2686.544,1050.857C2685.337,1064.01 2685.337,1076.68 2697.042,1071.37C2708.746,1066.061 2711.763,1050.012 2710.315,1039.152C2708.867,1028.292 2707.54,1025.638 2703.558,1026.965ZM2782.999,1026.283C2787.026,1029.657 2792.036,1032.983 2804.033,1034.477C2808.632,1035.05 2817.562,1030.664 2817.692,1027.738C2817.847,1024.263 2807.332,1017.305 2802.185,1015.368C2797.039,1013.431 2784.486,1012.386 2779.869,1014.232C2775.252,1016.078 2778.971,1022.908 2782.999,1026.283ZM2655.22,1020.533C2649.993,1019.999 2643.98,1020.057 2633.21,1025.55C2629.082,1027.655 2624.15,1036.296 2625.684,1038.791C2627.506,1041.755 2640.113,1041.616 2645.46,1040.332C2650.808,1039.048 2661.785,1032.871 2664.571,1028.753C2667.358,1024.635 2660.447,1021.067 2655.22,1020.533ZM2667.187,998.78C2662.888,995.76 2657.614,992.871 2645.533,992.399C2640.903,992.218 2632.377,997.346 2632.496,1000.272C2632.636,1003.748 2643.703,1009.789 2648.995,1011.283C2654.288,1012.777 2666.884,1012.753 2671.328,1010.522C2675.771,1008.292 2671.486,1001.801 2667.187,998.78ZM2622.914,1007.477C2617.731,1006.616 2611.726,1006.296 2600.633,1011.102C2596.381,1012.944 2590.916,1021.257 2592.29,1023.844C2593.921,1026.917 2606.513,1027.57 2611.93,1026.625C2617.347,1025.679 2628.691,1020.203 2631.731,1016.269C2634.77,1012.334 2628.097,1008.339 2622.914,1007.477ZM2655.726,711.489C2655.726,711.489 2672.119,721.31 2684.559,716.871C2696.998,712.431 2708.492,707.1 2698.751,698.716C2689.009,690.332 2673.181,694.348 2663.938,700.231C2654.696,706.114 2652.846,708.435 2655.726,711.489ZM2633.72,881.575C2629.385,878.606 2624.077,875.779 2611.992,875.451C2607.36,875.325 2598.895,880.553 2599.048,883.478C2599.23,886.952 2610.368,892.861 2615.677,894.292C2620.987,895.723 2633.582,895.55 2637.999,893.267C2642.416,890.984 2638.054,884.544 2633.72,881.575ZM2871.995,769.279C2871.995,769.279 2888.389,779.1 2900.828,774.661C2913.268,770.221 2924.762,764.89 2915.02,756.506C2905.279,748.122 2889.451,752.138 2880.208,758.021C2870.965,763.904 2869.116,766.225 2871.995,769.279ZM2795.315,881.193C2795.315,881.193 2792.267,900.059 2801,909.968C2809.733,919.877 2818.944,928.577 2823.122,916.422C2827.299,904.268 2817.704,891.054 2808.815,884.65C2799.926,878.245 2797.084,877.387 2795.315,881.193ZM2827.751,765.429C2827.751,765.429 2846.214,770.36 2856.952,762.668C2867.689,754.977 2877.272,746.689 2865.6,741.309C2853.927,735.929 2839.815,744.146 2832.548,752.345C2825.282,760.545 2824.142,763.285 2827.751,765.429ZM2970.243,705.824C2970.243,705.824 2953.738,715.457 2951.635,728.496C2949.532,741.536 2948.666,754.176 2960.706,749.68C2972.746,745.183 2976.853,729.378 2976.151,718.444C2975.449,707.511 2974.306,704.772 2970.243,705.824ZM2690.674,961.59C2685.447,961.057 2679.434,961.114 2668.664,966.607C2664.536,968.713 2659.604,977.353 2661.138,979.849C2662.96,982.813 2675.567,982.673 2680.914,981.39C2686.262,980.106 2697.239,973.928 2700.025,969.81C2702.812,965.692 2695.901,962.124 2690.674,961.59ZM2606.028,946.125C2600.801,945.591 2594.787,945.649 2584.018,951.142C2579.89,953.248 2574.958,961.888 2576.491,964.383C2578.313,967.347 2590.921,967.208 2596.268,965.924C2601.615,964.641 2612.592,958.463 2615.379,954.345C2618.165,950.227 2611.254,946.659 2606.028,946.125ZM3013.527,654.385C3013.527,654.385 2996.213,646.297 2984.294,651.99C2972.376,657.682 2961.49,664.165 2972.04,671.505C2982.59,678.845 2997.923,673.226 3006.513,666.426C3015.103,659.626 3016.705,657.127 3013.527,654.385ZM2794.472,975.584C2798.171,979.316 2802.853,983.09 2814.66,985.685C2819.186,986.68 2828.483,983.137 2828.883,980.236C2829.358,976.789 2819.53,968.891 2814.584,966.487C2809.638,964.083 2797.235,961.885 2792.468,963.296C2787.7,964.708 2790.773,971.853 2794.472,975.584ZM2718.518,1058.942C2718.736,1064.191 2719.652,1070.135 2726.627,1080.01C2729.3,1083.794 2738.557,1087.442 2740.807,1085.567C2743.481,1083.341 2741.542,1070.883 2739.508,1065.774C2737.474,1060.665 2729.791,1050.682 2725.317,1048.512C2720.844,1046.343 2718.299,1053.692 2718.518,1058.942ZM2718.521,1018.939C2718.768,1024.187 2719.717,1030.125 2726.746,1039.962C2729.441,1043.731 2738.717,1047.328 2740.957,1045.441C2743.618,1043.2 2741.611,1030.753 2739.549,1025.655C2737.486,1020.557 2729.749,1010.617 2725.264,1008.472C2720.778,1006.327 2718.274,1013.69 2718.521,1018.939ZM2771.12,933.177C2765.933,932.344 2758.335,934.009 2759.965,938.706C2761.595,943.403 2770.607,952.204 2775.442,954.823C2780.277,957.443 2792.422,960.83 2794.947,958.436C2797.072,956.421 2794.536,946.801 2791.091,943.702C2782.103,935.616 2776.308,934.009 2771.12,933.177ZM2704.467,794.22C2704.467,794.22 2688.383,804.54 2686.831,817.657C2685.279,830.773 2684.947,843.439 2696.787,838.439C2708.627,833.439 2712.064,817.475 2710.902,806.581C2709.74,795.686 2708.483,792.998 2704.467,794.22ZM2780.211,911.49C2780.458,916.738 2781.407,922.677 2788.436,932.513C2791.131,936.283 2800.407,939.879 2802.647,937.992C2805.308,935.751 2803.301,923.304 2801.239,918.206C2799.177,913.109 2791.439,903.168 2786.954,901.023C2782.468,898.878 2779.964,906.242 2780.211,911.49ZM3215.585,816.793C3215.585,816.793 3200.097,805.599 3187.322,808.953C3174.547,812.307 3162.637,816.63 3171.622,825.821C3180.607,835.011 3196.721,832.37 3206.435,827.304C3216.15,822.237 3218.192,820.083 3215.585,816.793ZM2968.11,949.94C2968.11,949.94 2980.651,935.52 2978.459,922.495C2976.267,909.47 2973.031,897.22 2963.07,905.343C2953.11,913.465 2954.291,929.752 2958.464,939.882C2962.637,950.012 2964.599,952.24 2968.11,949.94ZM3111.928,754.209C3111.928,754.209 3093.532,749.033 3082.693,756.581C3071.855,764.129 3062.162,772.289 3073.762,777.824C3085.362,783.358 3099.582,775.329 3106.957,767.227C3114.332,759.125 3115.508,756.4 3111.928,754.209ZM3150.25,761.838C3150.25,761.838 3135.867,774.421 3136.269,787.622C3136.671,800.824 3138.212,813.4 3149.184,806.706C3160.156,800.013 3161.198,783.716 3158.44,773.113C3155.682,762.51 3154.041,760.036 3150.25,761.838ZM3059.739,595.35C3059.739,595.35 3042.872,604.334 3040.263,617.282C3037.654,630.23 3036.297,642.827 3048.503,638.802C3060.709,634.777 3065.428,619.144 3065.151,608.191C3064.875,597.239 3063.84,594.457 3059.739,595.35ZM3121.783,591.805C3121.783,591.805 3104.916,600.789 3102.307,613.737C3099.699,626.684 3098.341,639.281 3110.547,635.257C3122.753,631.232 3127.472,615.599 3127.196,604.646C3126.92,593.693 3125.884,590.912 3121.783,591.805ZM3147.304,702.84C3147.304,702.84 3130.348,694.025 3118.199,699.206C3106.05,704.387 3094.898,710.401 3105.127,718.183C3115.356,725.965 3130.913,721.002 3139.785,714.572C3148.656,708.143 3150.362,705.715 3147.304,702.84ZM3109.02,648.385C3109.02,648.385 3092.153,657.369 3089.544,670.317C3086.935,683.265 3085.578,695.862 3097.784,691.837C3109.99,687.812 3114.709,672.179 3114.432,661.226C3114.156,650.274 3113.121,647.492 3109.02,648.385ZM3091.593,794.569C3091.593,794.569 3073.308,800.125 3068.247,812.324C3063.186,824.524 3059.42,836.622 3072.174,835.031C3084.927,833.44 3092.578,819.013 3094.423,808.214C3096.268,797.414 3095.79,794.485 3091.593,794.569ZM3177.904,725.32C3177.904,725.32 3163.521,737.903 3163.923,751.105C3164.325,764.307 3165.866,776.882 3176.838,770.189C3187.81,763.495 3188.852,747.199 3186.094,736.595C3183.336,725.992 3181.695,723.519 3177.904,725.32ZM3008.685,679.022C3008.685,679.022 2991.818,688.006 2989.209,700.953C2986.6,713.901 2985.243,726.498 2997.449,722.473C3009.655,718.449 3014.374,702.816 3014.098,691.863C3013.821,680.91 3012.786,678.129 3008.685,679.022ZM3205.016,861.462C3205.016,861.462 3188.708,851.499 3176.231,855.83C3163.753,860.161 3152.214,865.392 3161.882,873.861C3171.55,882.329 3187.412,878.451 3196.706,872.648C3205.999,866.846 3207.869,864.541 3205.016,861.462ZM3153.328,980.613C3154.911,985.623 3157.35,991.12 3166.664,998.827C3170.234,1001.781 3180.122,1002.881 3181.805,1000.483C3183.803,997.635 3178.674,986.117 3175.374,981.718C3172.075,977.319 3162.049,969.693 3157.164,968.769C3152.278,967.844 3151.744,975.604 3153.328,980.613ZM3106.736,900.012C3103.107,903.812 3099.463,908.596 3097.193,920.47C3096.322,925.022 3100.119,934.218 3103.03,934.538C3106.488,934.918 3114.114,924.878 3116.382,919.868C3118.649,914.858 3120.506,902.399 3118.965,897.672C3117.423,892.945 3110.365,896.213 3106.736,900.012ZM2989.082,959.849C2993.498,957.003 2998.159,953.203 3003.142,942.188C3005.052,937.966 3003.51,928.137 3000.753,927.146C2997.48,925.968 2987.719,933.948 2984.343,938.29C2980.968,942.631 2976.251,954.311 2976.645,959.267C2977.04,964.224 2984.666,962.696 2989.082,959.849ZM2907.628,566.395C2906.921,571.601 2906.78,577.613 2911.914,588.559C2913.882,592.754 2922.355,597.969 2924.899,596.518C2927.922,594.796 2928.2,582.19 2927.093,576.804C2925.987,571.417 2920.176,560.242 2916.152,557.32C2912.128,554.399 2908.334,561.189 2907.628,566.395ZM2974.953,773.194C2979.613,770.767 2984.606,767.415 2990.585,756.907C2992.877,752.88 2992.249,742.951 2989.597,741.709C2986.446,740.233 2975.989,747.278 2972.227,751.289C2968.465,755.299 2962.688,766.493 2962.623,771.465C2962.558,776.437 2970.293,775.62 2974.953,773.194ZM2638.757,678.763C2643.206,681.559 2648.621,684.174 2660.71,684.025C2665.344,683.968 2673.595,678.41 2673.327,675.494C2673.008,672.029 2661.646,666.564 2656.284,665.344C2650.922,664.124 2638.344,664.794 2634.02,667.25C2629.697,669.705 2634.309,675.967 2638.757,678.763ZM2608.109,733.788C2611.139,738.08 2615.133,742.576 2626.348,747.089C2630.647,748.819 2640.402,746.862 2641.276,744.067C2642.315,740.746 2633.929,731.331 2629.449,728.142C2624.969,724.953 2613.1,720.734 2608.165,721.337C2603.229,721.941 2605.078,729.496 2608.109,733.788ZM2934.573,600.785C2933.866,605.992 2933.725,612.004 2938.859,622.949C2940.827,627.144 2949.3,632.359 2951.845,630.909C2954.867,629.186 2955.145,616.581 2954.038,611.194C2952.932,605.808 2947.121,594.632 2943.097,591.711C2939.073,588.79 2935.279,595.579 2934.573,600.785ZM3021.79,655.03C3021.083,660.236 3020.942,666.249 3026.076,677.194C3028.044,681.389 3036.517,686.604 3039.062,685.154C3042.084,683.431 3042.362,670.826 3041.255,665.439C3040.149,660.052 3034.338,648.877 3030.314,645.956C3026.29,643.034 3022.496,649.824 3021.79,655.03ZM3229.528,838.522C3224.687,836.48 3218.921,834.774 3207.014,836.87C3202.451,837.673 3195.203,844.489 3195.939,847.325C3196.812,850.692 3208.907,854.253 3214.395,854.593C3219.884,854.932 3232.19,852.242 3236.061,849.122C3239.931,846.001 3234.369,840.564 3229.528,838.522ZM3175.238,802.103C3180.436,801.338 3186.252,799.807 3195.344,791.839C3198.829,788.785 3201.49,779.199 3199.391,777.156C3196.898,774.729 3184.71,777.958 3179.841,780.514C3174.973,783.071 3165.847,791.753 3164.156,796.429C3162.465,801.105 3170.04,802.868 3175.238,802.103ZM2990.165,642.023C2995.325,643.017 3001.32,643.491 3012.533,638.971C3016.83,637.239 3022.507,629.068 3021.2,626.447C3019.647,623.333 3007.076,622.358 3001.637,623.164C2996.197,623.97 2984.717,629.153 2981.577,633.009C2978.438,636.865 2985.006,641.029 2990.165,642.023ZM3147.641,853.404C3152.771,854.539 3158.751,855.177 3170.084,850.967C3174.427,849.353 3180.326,841.341 3179.091,838.685C3177.624,835.53 3165.085,834.21 3159.626,834.867C3154.166,835.523 3142.548,840.39 3139.303,844.158C3136.059,847.926 3142.511,852.27 3147.641,853.404ZM2730.65,596.959C2729.796,602.143 2729.484,608.149 2734.305,619.236C2736.153,623.485 2744.474,628.939 2747.059,627.561C2750.129,625.925 2750.765,613.332 2749.812,607.917C2748.859,602.501 2743.367,591.165 2739.428,588.13C2735.489,585.096 2731.504,591.775 2730.65,596.959ZM3188.859,946.29C3190.885,951.138 3193.806,956.394 3203.774,963.236C3207.594,965.858 3217.541,966.068 3219.001,963.529C3220.736,960.514 3214.596,949.501 3210.916,945.415C3207.236,941.33 3196.567,934.632 3191.619,934.149C3186.67,933.666 3186.833,941.442 3188.859,946.29ZM3147.916,964.813C3152.332,961.966 3156.994,958.166 3161.976,947.151C3163.886,942.929 3162.344,933.101 3159.588,932.109C3156.314,930.931 3146.553,938.912 3143.178,943.253C3139.802,947.595 3135.085,959.274 3135.479,964.231C3135.874,969.187 3143.5,967.659 3147.916,964.813ZM2882.512,741.37C2887.516,742.972 2893.412,744.157 2905.084,741.006C2909.558,739.798 2916.167,732.362 2915.182,729.604C2914.012,726.328 2901.647,723.861 2896.15,724.013C2890.653,724.165 2878.637,727.943 2875.06,731.397C2871.483,734.85 2877.508,739.769 2882.512,741.37ZM2819.755,565.407C2816.329,569.39 2812.938,574.357 2811.288,586.333C2810.655,590.924 2814.924,599.91 2817.848,600.079C2821.321,600.279 2828.415,589.855 2830.419,584.734C2832.423,579.613 2833.631,567.075 2831.846,562.434C2830.06,557.794 2823.182,561.424 2819.755,565.407ZM3067.781,922.841C3066.521,917.741 3064.439,912.099 3055.637,903.811C3052.263,900.635 3042.466,898.905 3040.633,901.19C3038.457,903.904 3042.839,915.727 3045.85,920.328C3048.861,924.93 3058.379,933.181 3063.195,934.416C3068.011,935.652 3069.04,927.942 3067.781,922.841ZM2983.292,998.534C2984.619,993.45 2985.482,987.499 2981.701,976.016C2980.252,971.614 2972.468,965.418 2969.767,966.552C2966.56,967.899 2964.768,980.379 2965.219,985.86C2965.669,991.341 2970.095,1003.134 2973.738,1006.518C2977.381,1009.901 2981.965,1003.618 2983.292,998.534ZM3062.416,1013.789C3065.198,1009.332 3067.797,1003.909 3067.612,991.82C3067.541,987.187 3061.959,978.952 3059.043,979.229C3055.58,979.558 3050.148,990.937 3048.944,996.302C3047.74,1001.668 3048.448,1014.244 3050.916,1018.56C3053.384,1022.876 3059.633,1018.245 3062.416,1013.789ZM3077.306,1041.088C3080.089,1036.632 3082.687,1031.208 3082.503,1019.12C3082.432,1014.487 3076.85,1006.252 3073.934,1006.529C3070.47,1006.858 3065.039,1018.236 3063.835,1023.602C3062.631,1028.967 3063.338,1041.544 3065.807,1045.86C3068.275,1050.176 3074.524,1045.545 3077.306,1041.088ZM3191.959,898.076C3197.089,899.211 3203.069,899.849 3214.401,895.639C3218.745,894.025 3224.643,886.013 3223.409,883.357C3221.942,880.202 3209.403,878.882 3203.943,879.539C3198.483,880.196 3186.865,885.062 3183.621,888.83C3180.377,892.598 3186.829,896.942 3191.959,898.076ZM3102.957,952.126C3098.641,949.13 3093.35,946.271 3081.267,945.868C3076.636,945.714 3068.14,950.89 3068.275,953.816C3068.435,957.291 3079.536,963.269 3084.837,964.732C3090.138,966.196 3102.734,966.1 3107.164,963.844C3111.595,961.588 3107.273,955.122 3102.957,952.126ZM2767.522,570.369C2766.668,575.553 2766.356,581.559 2771.178,592.645C2773.025,596.895 2781.347,602.348 2783.931,600.97C2787.002,599.334 2787.637,586.742 2786.684,581.326C2785.731,575.91 2780.24,564.574 2776.301,561.54C2772.362,558.506 2768.376,565.184 2767.522,570.369ZM2955.066,700.877C2960.225,701.87 2966.22,702.344 2977.433,697.825C2981.731,696.092 2987.407,687.921 2986.1,685.3C2984.547,682.187 2971.977,681.211 2966.537,682.018C2961.098,682.824 2949.617,688.007 2946.478,691.863C2943.338,695.718 2949.907,699.883 2955.066,700.877ZM2834.646,598.734C2831.22,602.717 2827.829,607.684 2826.178,619.66C2825.546,624.25 2829.815,633.237 2832.739,633.405C2836.212,633.605 2843.306,623.182 2845.31,618.061C2847.314,612.94 2848.522,600.402 2846.736,595.761C2844.951,591.121 2838.072,594.751 2834.646,598.734ZM2877.208,671.013C2872.128,669.673 2866.179,668.795 2854.686,672.547C2850.281,673.985 2844.065,681.754 2845.192,684.457C2846.531,687.668 2859.007,689.491 2864.489,689.054C2869.97,688.618 2881.775,684.222 2885.168,680.587C2888.561,676.953 2882.288,672.353 2877.208,671.013ZM2682.432,601.568C2681.578,606.752 2681.267,612.758 2686.088,623.845C2687.936,628.094 2696.257,633.548 2698.842,632.17C2701.912,630.534 2702.547,617.942 2701.595,612.526C2700.642,607.11 2695.15,595.774 2691.211,592.739C2687.272,589.705 2683.286,596.384 2682.432,601.568ZM3135.624,760.773C3140.19,758.175 3145.054,754.638 3150.636,743.914C3152.776,739.804 3151.778,729.906 3149.081,728.763C3145.878,727.407 3135.691,734.837 3132.081,738.985C3128.472,743.134 3123.117,754.536 3123.238,759.506C3123.358,764.477 3131.057,763.372 3135.624,760.773ZM3211.799,736.731C3206.958,738.773 3201.71,741.71 3194.9,751.7C3192.29,755.528 3192.112,765.476 3194.656,766.928C3197.677,768.654 3208.669,762.479 3212.744,758.785C3216.818,755.092 3223.481,744.402 3223.948,739.452C3224.416,734.502 3216.64,734.69 3211.799,736.731ZM3084.547,1009.331C3086.13,1014.341 3088.569,1019.838 3097.884,1027.545C3101.454,1030.499 3111.342,1031.599 3113.024,1029.201C3115.022,1026.353 3109.893,1014.835 3106.593,1010.436C3103.294,1006.037 3093.268,998.411 3088.383,997.486C3083.498,996.562 3082.964,1004.321 3084.547,1009.331ZM3131.066,691.209C3136.203,690.104 3141.905,688.194 3150.455,679.646C3153.732,676.37 3155.757,666.629 3153.529,664.729C3150.881,662.471 3138.932,666.493 3134.241,669.364C3129.551,672.235 3121.015,681.498 3119.635,686.275C3118.255,691.052 3125.93,692.314 3131.066,691.209ZM3094.145,743.899C3099.103,745.637 3104.964,746.983 3116.718,744.154C3121.223,743.069 3128.034,735.817 3127.125,733.033C3126.045,729.726 3113.752,726.921 3108.253,726.922C3102.754,726.923 3090.639,730.37 3086.969,733.724C3083.298,737.079 3089.187,742.16 3094.145,743.899ZM3005.745,978.285C3010.162,975.439 3014.823,971.639 3019.805,960.624C3021.715,956.402 3020.173,946.573 3017.417,945.582C3014.143,944.404 3004.382,952.384 3001.007,956.726C2997.632,961.067 2992.914,972.747 2993.309,977.703C2993.703,982.66 3001.329,981.132 3005.745,978.285ZM2764.331,678.858C2763.477,684.042 2763.165,690.048 2767.987,701.135C2769.835,705.384 2778.156,710.837 2780.741,709.46C2783.811,707.824 2784.446,695.231 2783.493,689.815C2782.541,684.4 2777.049,673.064 2773.11,670.029C2769.171,666.995 2765.185,673.674 2764.331,678.858ZM3151.606,1010.533C3152.538,1005.363 3152.941,999.362 3148.288,988.204C3146.505,983.927 3138.267,978.348 3135.662,979.686C3132.567,981.276 3131.741,993.857 3132.612,999.287C3133.483,1004.717 3138.802,1016.135 3142.695,1019.228C3146.587,1022.322 3150.674,1015.704 3151.606,1010.533ZM2641.561,605.681C2643.517,610.557 2646.363,615.855 2656.232,622.838C2660.015,625.514 2669.957,625.866 2671.454,623.348C2673.232,620.357 2667.249,609.259 2663.628,605.121C2660.006,600.983 2649.434,594.134 2644.493,593.58C2639.552,593.027 2639.604,600.804 2641.561,605.681ZM2681.217,808.885C2684.863,805.101 2688.528,800.334 2690.852,788.47C2691.742,783.922 2687.987,774.709 2685.077,774.376C2681.62,773.981 2673.95,783.987 2671.66,788.987C2669.37,793.987 2667.457,806.437 2668.978,811.171C2670.499,815.905 2677.571,812.669 2681.217,808.885ZM2728.321,747.818C2723.093,748.339 2717.212,749.596 2707.757,757.13C2704.133,760.017 2701.026,769.469 2703.027,771.608C2705.404,774.148 2717.73,771.493 2722.713,769.168C2727.696,766.842 2737.218,758.596 2739.126,754.004C2741.034,749.413 2733.55,747.297 2728.321,747.818ZM3088.118,652.059C3089.674,647.041 3090.805,641.134 3087.547,629.492C3086.298,625.03 3078.802,618.488 3076.053,619.499C3072.788,620.699 3070.434,633.086 3070.636,638.581C3070.839,644.077 3074.727,656.058 3078.213,659.603C3081.7,663.148 3086.562,657.078 3088.118,652.059ZM2629.506,632.626C2631.463,637.502 2634.309,642.8 2644.178,649.783C2647.96,652.459 2657.903,652.811 2659.4,650.293C2661.178,647.302 2655.195,636.204 2651.573,632.066C2647.952,627.928 2637.38,621.079 2632.439,620.526C2627.497,619.972 2627.55,627.75 2629.506,632.626ZM2996.882,1019.766C3001.298,1016.92 3005.959,1013.12 3010.942,1002.105C3012.852,997.883 3011.309,988.054 3008.553,987.063C3005.28,985.885 2995.519,993.866 2992.143,998.207C2988.768,1002.548 2984.051,1014.228 2984.445,1019.184C2984.84,1024.141 2992.466,1022.613 2996.882,1019.766ZM3120.672,813.264C3122.696,808.416 3124.382,802.643 3122.241,790.744C3121.421,786.184 3114.578,778.962 3111.746,779.708C3108.381,780.593 3104.865,792.701 3104.546,798.191C3104.227,803.681 3106.963,815.977 3110.098,819.836C3113.233,823.695 3118.648,818.113 3120.672,813.264ZM3122.676,949.642C3122.676,949.642 3140.074,941.735 3143.491,928.977C3146.908,916.219 3149.054,903.732 3136.619,906.982C3124.184,910.232 3118.493,925.537 3118.08,936.486C3117.668,947.434 3118.526,950.275 3122.676,949.642ZM2750.554,1047.65C2750.554,1047.65 2747.507,1066.516 2756.24,1076.425C2764.973,1086.334 2774.183,1095.034 2778.361,1082.879C2782.538,1070.724 2772.943,1057.511 2764.054,1051.107C2755.165,1044.702 2752.324,1043.844 2750.554,1047.65ZM3088.018,937.243C3088.018,937.243 3096.588,920.162 3091.232,908.089C3085.876,896.016 3079.701,884.952 3072.068,895.292C3064.435,905.632 3069.621,921.117 3076.178,929.894C3082.735,938.672 3085.187,940.343 3088.018,937.243ZM2751.156,974.028C2751.156,974.028 2756.968,992.233 2769.238,997.122C2781.507,1002.011 2793.657,1005.607 2791.887,992.876C2790.117,980.146 2775.584,972.7 2764.76,971.006C2753.935,969.313 2751.013,969.833 2751.156,974.028ZM2824.216,1111.172C2811.781,1123.511 2792.383,1141.797 2772.44,1138.473C2752.497,1135.149 2737.54,1141.797 2739.803,1150.661C2742.066,1159.524 2755.933,1166.618 2770.778,1175.035C2778.73,1179.544 2827.427,1225.664 2845.518,1251.881C2846.637,1253.826 2847.405,1255.468 2847.75,1256.734C2849.563,1263.371 2854.885,1272.436 2860.886,1280.241C2866.312,1289.595 2872.701,1296.706 2883.389,1297.464L2884.054,1297.51C2887.25,1297.89 2891.266,1298.002 2895.324,1297.96C2899.381,1298.002 2903.397,1297.89 2906.593,1297.51L2907.258,1297.464C2917.947,1296.706 2924.335,1289.595 2929.762,1280.241C2935.762,1272.436 2941.084,1263.371 2942.897,1256.734C2943.243,1255.468 2944.01,1253.826 2945.13,1251.881C2963.221,1225.664 3011.917,1179.544 3019.869,1175.035C3034.714,1166.618 3048.582,1159.524 3050.844,1150.661C3053.107,1141.797 3038.15,1135.149 3018.207,1138.473C2998.264,1141.797 2976.105,1124.624 2966.134,1110.221C2964.35,1107.645 2959.407,1104.209 2958.526,1103.408C2952.433,1097.869 2937.168,1075.839 2927.796,1069.058C2914.116,1059.16 2914.268,1056.147 2910.786,1051.771C2901.126,1039.628 2898.652,1034.284 2898.098,1025.974C2897.544,1017.664 2899.999,1010.134 2901.161,1013.967C2902.744,1019.192 2911.566,1042.959 2925.84,1049.055C2938.538,1054.477 2944.951,1061.268 2945.315,1048.961C2945.549,1041.032 2944.247,1035.209 2941.477,1020.806C2938.707,1006.402 2938.423,999.919 2937.869,983.853C2937.315,967.788 2937.167,965.322 2943.613,928.558C2946.15,914.088 2935.646,902.876 2958.504,892.856C2978.45,884.111 2986.347,903.44 3010.01,927.199C3019.357,936.584 3023.305,940.283 3029.248,950.134C3032.232,955.081 3039.774,988.592 3045.664,986.307C3051.155,987.349 3041.193,966.871 3043.245,963.057C3045.297,959.243 3051.383,959.008 3057.976,963.424C3063.361,967.03 3080.284,1007.124 3080.81,993.827C3082.125,960.599 3006.844,899.705 3038.298,888.451C3057.315,881.647 3080.531,883.805 3095.601,883.779C3112.636,883.749 3134.227,893.737 3145.106,900.014C3149.441,902.514 3160.498,905.487 3165.563,925.678C3168.424,937.083 3182.119,943.164 3182.664,924.175C3183.156,907.009 3182.038,903.001 3168.742,890.813C3155.447,878.626 3149.397,876.604 3141.446,870.335C3138.524,868.084 3109.118,846.726 3143.297,827.213C3155.958,819.401 3164.835,804.279 3139.399,816.012C3115.994,826.81 3073.977,860.818 3065.281,857.975C3056.227,855.79 3053.411,856.431 3048.859,838.17C3044.768,821.76 3055.647,797.165 3060.298,779.015C3065.007,760.642 3062.582,743.541 3076.431,727.475C3090.28,711.41 3095.051,704.93 3085.634,706.038C3076.216,707.146 3057.009,723.656 3052.396,744.262C3047.784,764.859 3030.611,801.115 3018.977,820.504C3007.344,839.893 2977.869,825.524 2961.804,794.502C2945.738,763.479 2942.643,754.418 2936.09,713.285C2931.292,683.176 2957.167,660.592 2961.599,652.282C2966.031,643.973 2976.276,635.236 2961.319,636.344C2946.362,637.452 2920.284,682.117 2920.284,682.117C2905.327,711.478 2932.183,753.126 2919.442,798.551C2906.701,843.977 2882.88,836.776 2859.613,831.236C2836.346,825.696 2837.454,821.264 2823.051,789.134C2808.647,757.004 2814.187,753.68 2819.173,742.046C2824.159,730.413 2849.641,719.333 2834.13,678.339C2818.619,637.345 2813.886,666.229 2820.835,678.893C2834.98,704.673 2808.612,712.046 2797.004,723.952C2785.906,735.335 2768.768,723.18 2763.988,720.376C2753.25,714.078 2744.386,713.794 2732.246,712.686C2720.106,711.578 2723.889,706.038 2722.7,689.419C2721.51,672.8 2710.012,678.956 2713.891,687.141C2716.864,693.413 2699.515,718.779 2732.246,725.981C2764.978,733.183 2800.639,785.053 2792.71,811.39C2788.834,824.266 2759.107,834.659 2749.512,839.661C2728.478,850.627 2721.251,853.022 2715.332,853.968C2707.45,855.228 2683.871,856.886 2675.703,839.689C2671.844,831.564 2672.688,819.434 2661.118,813.549C2649.723,807.753 2642.123,814.798 2653.698,821.076C2663.171,826.216 2657.413,836.222 2667.938,854.503C2678.464,872.784 2712.81,869.46 2699.515,877.77C2686.219,886.079 2670.736,893.616 2659.103,889.738C2647.469,885.86 2636.916,897.159 2666.276,901.591C2695.637,906.022 2730.537,871.676 2743.278,863.92C2753.284,857.83 2760.119,861.673 2756.02,872.784C2740.118,896.756 2727.71,940.599 2715.58,961.42C2705.996,977.869 2700.407,992.598 2695.083,1001.306C2689.391,1010.615 2665.168,1021.803 2680.679,1022.357C2696.191,1022.911 2718.781,991.293 2720.915,985.754C2723.049,980.214 2729.028,974.542 2732.246,987.456C2735.078,998.819 2750.48,1030.666 2764.329,1035.098C2778.179,1039.53 2757.382,1020.415 2755.466,1013.967C2733.688,962.945 2748.389,943.906 2765.763,898.22C2781.809,865.119 2817.433,856.071 2846.317,876.108C2869.492,904.295 2845.324,970.527 2849.406,973.67C2852.188,980.996 2866.469,966.011 2870.514,957.174C2878.281,950.302 2890.635,907.13 2883.988,944.246C2877.34,981.363 2849.641,993.55 2849.641,993.55C2849.641,993.55 2847.979,994.104 2849.641,1026.235C2850.668,1046.079 2844.324,1079.289 2832.452,1103.222C2831.296,1105.553 2827.87,1107.547 2824.216,1111.172ZM3023.025,694.223C3023.025,694.223 3020.932,713.218 3030.153,722.675C3039.374,732.131 3049.011,740.356 3052.571,728.006C3056.131,715.657 3045.882,702.944 3036.682,696.995C3027.481,691.046 3024.6,690.333 3023.025,694.223ZM2929.292,1433.058L3201.847,1248.031L3192.983,1235.843L2929.292,1398.711L2863.028,1398.711L2599.337,1235.843L2590.474,1248.031L2863.028,1433.058L2929.292,1433.058ZM3029.8,1022.943C3029.8,1022.943 3042.341,1008.523 3040.149,995.498C3037.957,982.473 3034.721,970.223 3024.76,978.345C3014.8,986.468 3015.981,1002.755 3020.154,1012.885C3024.328,1023.015 3026.289,1025.243 3029.8,1022.943ZM3187.666,912.196C3187.666,912.196 3196.382,929.203 3209.286,932.016C3222.191,934.83 3234.765,936.387 3230.934,924.118C3227.103,911.85 3211.547,906.884 3200.591,906.987C3189.635,907.09 3186.838,908.081 3187.666,912.196ZM2577.774,786.223C2577.774,786.223 2586.882,803.024 2599.848,805.538C2612.815,808.052 2625.421,809.317 2621.307,797.14C2617.193,784.964 2601.526,780.36 2590.575,780.717C2579.625,781.073 2576.851,782.129 2577.774,786.223ZM3190,986.544C3190,986.544 3196.092,968.43 3189.097,957.227C3182.103,946.023 3174.439,935.933 3168.33,947.241C3162.22,958.548 3169.525,973.153 3177.247,980.926C3184.969,988.698 3187.631,990.009 3190,986.544ZM2657.926,741.524C2657.926,741.524 2646.753,757.028 2650.124,769.799C2653.495,782.569 2657.834,794.473 2667.013,785.476C2676.191,776.479 2673.528,760.368 2668.448,750.66C2663.368,740.953 2661.212,738.914 2657.926,741.524ZM2896.401,1377.486C2927.572,1377.486 2918.224,1382.973 2989.675,1334.45C3062.08,1285.28 3101.146,1258.421 3101.146,1258.421C3101.146,1258.421 3141.169,1225.099 3175.256,1227.534C3198.523,1229.195 3165.838,1188.755 3102.132,1207.037C3038.425,1225.318 2974.164,1317.277 2960.868,1315.615C2947.573,1313.953 3050.612,1216.454 3075.541,1202.605C3100.47,1188.755 3151.989,1181 3166.946,1183.216C3181.904,1185.432 3132.824,1150.764 3077.65,1167.351C3025.83,1182.929 2980.865,1234.269 2960.347,1262.695C2938.106,1293.51 2911.492,1335.521 2896.739,1334.616L2896.739,1334.602C2896.55,1334.592 2896.36,1334.578 2896.169,1334.559C2895.971,1334.531 2895.775,1334.495 2895.582,1334.45L2895.582,1334.488C2877.972,1331.961 2854.316,1293.651 2831.973,1262.695C2811.456,1234.269 2766.49,1182.929 2714.67,1167.351C2659.496,1150.764 2610.417,1185.432 2625.374,1183.216C2640.331,1181 2691.851,1188.755 2716.779,1202.605C2741.708,1216.454 2844.747,1313.953 2831.452,1315.615C2818.157,1317.277 2753.896,1225.318 2690.189,1207.037C2626.482,1188.755 2593.797,1229.195 2617.064,1227.534C2651.151,1225.099 2691.174,1258.421 2691.174,1258.421C2691.174,1258.421 2730.241,1285.28 2802.645,1334.45C2878.001,1385.625 2865.229,1377.486 2896.401,1377.486ZM3003.879,731.804C3003.879,731.804 3001.786,750.8 3011.007,760.256C3020.229,769.712 3029.866,777.937 3033.426,765.588C3036.986,753.238 3026.737,740.525 3017.536,734.576C3008.336,728.628 3005.455,727.914 3003.879,731.804ZM3083.762,975.547C3083.762,975.547 3089.905,993.643 3102.261,998.308C3114.618,1002.973 3126.831,1006.346 3124.83,993.651C3122.828,980.955 3108.162,973.774 3097.309,972.278C3086.455,970.782 3083.543,971.355 3083.762,975.547ZM2988.989,776.122C2988.989,776.122 2986.896,795.117 2996.117,804.574C3005.338,814.03 3014.975,822.255 3018.535,809.905C3022.095,797.556 3011.846,784.843 3002.646,778.894C2993.445,772.945 2990.564,772.231 2988.989,776.122ZM2567.249,843.282C2567.249,843.282 2576.356,860.083 2589.323,862.597C2602.289,865.111 2614.896,866.376 2610.782,854.199C2606.668,842.023 2591,837.419 2580.05,837.776C2569.1,838.132 2566.326,839.188 2567.249,843.282ZM2728.494,790.623C2728.494,790.623 2747.411,793.334 2757.163,784.425C2766.914,775.517 2775.448,766.152 2763.221,762.192C2750.994,758.232 2737.954,768.062 2731.709,777.064C2725.464,786.066 2724.657,788.922 2728.494,790.623ZM2614.08,987.435C2614.08,987.435 2633.127,988.984 2642.316,979.496C2651.504,970.008 2659.45,960.139 2647.004,956.934C2634.557,953.729 2622.142,964.338 2616.459,973.705C2610.777,983.072 2610.146,985.972 2614.08,987.435ZM2722.153,813.074C2722.153,813.074 2735.897,826.353 2749.018,824.846C2762.14,823.339 2774.543,820.749 2766.953,810.377C2759.364,800.004 2743.037,800.331 2732.702,803.968C2722.368,807.605 2720.04,809.447 2722.153,813.074ZM2679.686,741.207C2679.686,741.207 2696.08,751.028 2708.519,746.588C2720.959,742.149 2732.453,736.818 2722.711,728.433C2712.97,720.049 2697.142,724.065 2687.899,729.949C2678.657,735.832 2676.807,738.153 2679.686,741.207Z" style="fill:rgb(238,231,51);"/>
            </g>
        </g>
    </g>
</svg>
