<?xml version="1.0" encoding="UTF-8" standalone="no"?>
<!DOCTYPE svg PUBLIC "-//W3C//DTD SVG 1.1//EN" "http://www.w3.org/Graphics/SVG/1.1/DTD/svg11.dtd">
<svg width="100%" height="100%" viewBox="0 0 1375 623" version="1.1" xmlns="http://www.w3.org/2000/svg" xmlns:xlink="http://www.w3.org/1999/xlink" xml:space="preserve" xmlns:serif="http://www.serif.com/" style="fill-rule:evenodd;clip-rule:evenodd;stroke-linejoin:round;stroke-miterlimit:2;">
    <g transform="matrix(1,0,0,1,-7991,-3988)">
        <g id="Artboard11" transform="matrix(0.674457,0,0,1,2601.079266,-0.953257)">
            <rect x="7991.499" y="3988.953" width="2038.342" height="622.34" style="fill:none;"/>
            <g transform="matrix(1.590607,0,0,0.327543,-2265.754367,3337.610268)">
                <g transform="matrix(0.777089,0,0,2.545187,4631.962606,1423.59504)">
                    <path d="M2428.78,439.464L2476.25,439.464L2476.25,560.324L2550.514,560.324L2550.514,439.464L2597.984,439.464L2590.995,373.063L2435.769,373.063L2428.78,439.464Z" style="fill:rgb(198,229,234);"/>
                    <path d="M2784.08,396.07L2710.108,396.07L2710.108,485.478C2706.904,488.39 2703.118,490.72 2697.876,490.72C2690.887,490.72 2688.266,487.517 2688.266,480.236L2688.266,396.07L2614.293,396.07L2614.293,518.969C2614.293,545.18 2649.241,565.275 2693.508,564.11L2706.613,501.204L2713.603,501.204L2710.108,560.324L2784.08,560.324L2784.08,396.07Z" style="fill:rgb(198,229,234);"/>
                    <path d="M2895.33,558.286L2895.33,500.913L2877.856,500.913L2877.856,449.074L2894.748,449.074L2894.748,435.678L2862.13,435.678L2862.13,427.814C2879.313,426.358 2892.709,396.362 2884.264,376.849L2803.884,376.849L2803.884,435.678L2792.817,435.678L2792.817,449.074L2803.884,449.074L2803.884,529.454C2803.884,547.801 2821.358,563.819 2841.744,563.819C2857.762,563.819 2880.478,561.489 2895.33,558.286Z" style="fill:rgb(198,229,234);"/>
                    <path d="M2907.562,478.197C2907.562,529.454 2940.471,563.819 2992.019,563.819C3043.858,563.819 3076.475,532.949 3076.475,478.197C3076.475,426.941 3043.858,392.576 2992.019,392.576C2940.471,392.576 2907.562,423.446 2907.562,478.197ZM2978.622,478.197C2978.622,464.509 2982.408,457.52 2992.019,457.52C3001.92,457.52 3005.415,464.509 3005.415,478.197C3005.415,491.885 3001.92,498.875 2992.019,498.875C2982.408,498.875 2978.622,491.885 2978.622,478.197Z" style="fill:rgb(198,229,234);"/>
                    <path d="M3092.784,560.324L3166.757,560.324L3166.757,483.731L3231.118,474.994L3227.624,403.351C3217.139,396.653 3199.083,392.576 3183.357,392.576L3164.718,461.306L3157.728,461.306L3166.757,396.07L3092.784,396.07L3092.784,560.324Z" style="fill:rgb(198,229,234);"/>
                    <path d="M3243.35,478.78C3261.989,481.11 3298.392,485.478 3336.835,489.264L3336.835,496.254C3336.835,502.369 3333.049,505.864 3326.642,505.864C3316.74,505.864 3314.119,497.418 3312.663,493.341L3240.438,497.418C3245.68,544.889 3270.143,563.819 3324.603,563.819C3378.189,563.819 3407.895,545.763 3407.895,513.727C3407.895,503.243 3404.983,487.517 3400.032,479.653C3383.14,477.906 3347.61,474.12 3312.663,471.79L3312.371,463.927C3312.371,457.229 3317.614,454.025 3326.059,454.025C3333.631,454.025 3337.709,461.888 3338.582,470.043L3409.642,464.509C3404.109,418.495 3379.937,392.576 3322.856,392.576C3263.154,392.576 3239.855,417.621 3243.35,478.78Z" style="fill:rgb(198,229,234);"/>
                </g>
                <g transform="matrix(0.63895,0,0,2.092742,4964.801747,2244.258453)">
                    <path d="M2678.853,535.703C2683.33,511.401 2686.527,497.012 2686.527,464.077C2686.527,387.015 2635.046,335.535 2557.985,335.535C2480.603,335.535 2429.122,387.015 2429.122,464.077C2429.122,541.458 2480.603,592.939 2557.985,592.939C2586.763,592.939 2611.704,585.905 2631.849,572.795L2619.698,551.691C2603.07,562.882 2581.966,568.958 2557.985,568.958C2494.992,568.958 2453.104,527.069 2453.104,464.077C2453.104,401.405 2494.992,359.516 2557.985,359.516C2624.174,359.516 2662.545,401.405 2662.545,464.077C2662.545,479.106 2661.266,497.652 2658.388,511.721L2626.413,511.721L2626.413,387.975L2559.903,387.975L2572.693,431.782L2566.298,431.782C2561.182,418.032 2550.31,395.969 2543.915,385.097C2500.108,385.097 2471.97,412.276 2471.97,466.955C2471.97,515.238 2493.713,538.581 2521.852,538.581C2541.677,538.581 2555.426,525.79 2558.304,501.169L2564.699,501.169L2564.38,535.703L2678.853,535.703ZM2547.752,480.385C2539.119,480.385 2535.921,473.99 2535.921,461.839C2535.921,449.688 2539.119,443.293 2547.752,443.293C2555.426,443.293 2559.903,449.048 2559.903,456.723L2559.903,466.955C2559.903,475.908 2555.426,480.385 2547.752,480.385Z" style="fill:rgb(198,229,234);fill-rule:nonzero;"/>
                    <path d="M2710.829,430.183L2806.756,427.625L2806.756,436.258L2710.829,472.711L2710.829,560.324L2873.905,560.324L2873.905,484.861L2777.978,487.419L2777.978,478.466L2873.905,442.014L2873.905,354.72L2710.829,354.72L2710.829,430.183Z" style="fill:rgb(198,229,234);fill-rule:nonzero;"/>
                    <path d="M2927.624,560.324L3010.761,560.324L3016.517,469.833L3023.552,469.833L3029.307,560.324L3112.444,560.324L3152.094,379.981L3066.719,379.981L3060.004,491.256L3052.65,491.256L3044.016,379.981L2995.733,379.981L2987.419,491.256L2980.065,491.256L2973.03,379.981L2887.974,379.981L2927.624,560.324Z" style="fill:rgb(198,229,234);fill-rule:nonzero;"/>
                    <path d="M3265.288,516.837L3272.963,516.837L3265.288,560.324L3334.996,560.324L3334.996,434.02C3334.996,401.724 3299.822,376.144 3255.696,376.144C3223.72,376.144 3188.227,382.539 3163.286,393.411L3176.716,457.042C3191.105,452.246 3209.97,449.368 3228.516,449.048C3244.504,449.048 3260.172,450.967 3272.963,455.124L3272.643,464.397C3256.335,462.159 3235.231,458.961 3220.522,460.24C3181.512,463.118 3155.931,479.745 3156.251,510.122C3156.571,548.493 3185.349,565.76 3244.504,564.161C3251.859,548.493 3257.614,535.063 3265.288,516.837ZM3256.975,494.774C3256.975,503.088 3255.056,508.523 3247.382,508.523C3239.708,508.523 3237.15,501.489 3237.15,493.495C3237.15,485.181 3239.708,479.106 3247.382,479.106C3255.376,479.106 3256.975,486.14 3256.975,492.536L3256.975,494.774Z" style="fill:rgb(198,229,234);fill-rule:nonzero;"/>
                    <path d="M3353.541,560.324L3434.76,560.324L3434.76,476.228L3505.426,466.635L3501.589,387.975C3490.078,380.62 3470.253,376.144 3452.986,376.144L3432.522,451.607L3424.847,451.607L3434.76,379.981L3353.541,379.981L3353.541,560.324Z" style="fill:rgb(198,229,234);fill-rule:nonzero;"/>
                    <path d="M3629.492,558.086L3629.492,495.094L3610.307,495.094L3610.307,438.177L3628.853,438.177L3628.853,423.468L3593.04,423.468L3593.04,414.834C3611.906,413.236 3626.614,380.301 3617.341,358.877L3529.088,358.877L3529.088,423.468L3516.938,423.468L3516.938,438.177L3529.088,438.177L3529.088,526.43C3529.088,546.575 3548.274,564.161 3570.657,564.161C3588.244,564.161 3613.185,561.603 3629.492,558.086Z" style="fill:rgb(198,229,234);fill-rule:nonzero;"/>
                    <path d="M3646.759,560.324L3727.978,560.324L3720.303,480.385L3728.937,480.385L3746.204,560.324L3834.137,560.324L3812.394,477.507L3756.436,487.419L3754.518,479.745C3795.766,474.629 3828.701,439.775 3828.701,379.981L3743.326,379.981L3727.978,453.525L3720.303,453.525L3727.978,379.981L3727.978,335.535L3646.759,335.535L3646.759,560.324Z" style="fill:rgb(198,229,234);fill-rule:nonzero;"/>
                    <path d="M3834.777,470.152C3834.777,526.43 3870.909,564.161 3927.506,564.161C3984.423,564.161 4020.236,530.267 4020.236,470.152C4020.236,413.875 3984.423,376.144 3927.506,376.144C3870.909,376.144 3834.777,410.038 3834.777,470.152ZM3912.798,470.152C3912.798,455.124 3916.954,447.45 3927.506,447.45C3938.378,447.45 3942.215,455.124 3942.215,470.152C3942.215,485.181 3938.378,492.855 3927.506,492.855C3916.954,492.855 3912.798,485.181 3912.798,470.152Z" style="fill:rgb(198,229,234);fill-rule:nonzero;"/>
                    <path d="M4034.945,379.981L4034.945,604.77L4116.163,604.77L4110.088,506.925L4117.762,506.925C4121.279,526.11 4127.355,545.296 4135.349,564.161C4189.708,564.161 4223.282,530.267 4223.282,464.077C4223.282,405.242 4196.742,376.144 4162.208,376.144C4138.546,376.144 4121.919,392.132 4118.082,422.189L4110.408,422.189L4111.047,379.981L4034.945,379.981ZM4130.872,492.855C4121.919,492.855 4116.163,486.14 4116.163,476.228L4116.163,463.757C4116.163,452.886 4121.919,447.45 4130.872,447.45C4141.744,447.45 4145.581,455.124 4145.581,470.152C4145.581,485.181 4141.744,492.855 4130.872,492.855Z" style="fill:rgb(198,229,234);fill-rule:nonzero;"/>
                </g>
            </g>
        </g>
    </g>
</svg>
